<svg xmlns="http://www.w3.org/2000/svg">
	<symbol viewBox="0 0 32 32" id="telegram" stroke-width="1.5">
		<path d="M22.122 10.04h.022c.209 0 .403.065.562.177l-.003-.002a.632.632 0 0 1 .213.403v.003a2.553 2.553 0 0 1 .024.598v-.009c-.225 2.369-1.201 8.114-1.697 10.766-.21 1.123-.623 1.499-1.023 1.535-.869.081-1.529-.574-2.371-1.126-1.318-.865-2.063-1.403-3.342-2.246-1.479-.973-.52-1.51.322-2.384.221-.23 4.052-3.715 4.127-4.031a.308.308 0 0 0-.07-.265.34.34 0 0 0-.185-.053.364.364 0 0 0-.128.024l.002-.001q-.198.045-6.316 4.174a2.805 2.805 0 0 1-1.619.599h-.006a10.542 10.542 0 0 1-2.401-.573l.074.024c-.938-.306-1.683-.467-1.619-.985q.051-.404 1.114-.827 6.548-2.853 8.733-3.761a22.627 22.627 0 0 1 5.429-2.01l.157-.031zM15.93 1.025C7.628 1.045.905 7.78.905 16.085c0 8.317 6.742 15.06 15.06 15.06s15.06-6.742 15.06-15.06c0-8.305-6.723-15.04-15.023-15.06H15.93z"/>
	</symbol>

	<symbol viewBox="-143 145 512 512" id="linkedin">
		<path d="M113 145c-141.4 0-256 114.6-256 256s114.6 256 256 256 256-114.6 256-256-114.6-256-256-256zM41.4 508.1H-8.5V348.4h49.9v159.7zM15.1 328.4h-.4c-18.1 0-29.8-12.2-29.8-27.7 0-15.8 12.1-27.7 30.5-27.7s29.7 11.9 30.1 27.7c.1 15.4-11.6 27.7-30.4 27.7zM241 508.1h-56.6v-82.6c0-21.6-8.8-36.4-28.3-36.4-14.9 0-23.2 10-27 19.6-1.4 3.4-1.2 8.2-1.2 13.1v86.3H71.8s.7-146.4 0-159.7h56.1v25.1c3.3-11 21.2-26.6 49.8-26.6 35.5 0 63.3 23 63.3 72.4v88.8z"/>
	</symbol>

	<symbol viewBox="-143 145 512 512" id="facebook">
		<path d="M113 145c-141.4 0-256 114.6-256 256s114.6 256 256 256 256-114.6 256-256-114.6-256-256-256zm56.5 212.6-2.9 38.3h-39.3v133H77.7v-133H51.2v-38.3h26.5v-25.7c0-11.3.3-28.8 8.5-39.7 8.7-11.5 20.6-19.3 41.1-19.3 33.4 0 47.4 4.8 47.4 4.8l-6.6 39.2s-11-3.2-21.3-3.2-19.5 3.7-19.5 14v29.9h42.2z"/>
	</symbol>

	
    <symbol viewBox="0 0 24 24" id="home">
        <path stroke-linecap="round" stroke-width="1.5" d="M22 22H2M2 11l4.063-3.25M22 11l-8.126-6.5a3 3 0 0 0-3.748 0l-.782.625M15.5 5.5v-2A.5.5 0 0 1 16 3h2.5a.5.5 0 0 1 .5.5v5M4 22V9.5M20 9.5v4m0 8.5v-4.5"/>
        <path stroke-linecap="round" stroke-linejoin="round" stroke-width="1.5" d="M15 22v-5c0-1.414 0-2.121-.44-2.56C14.122 14 13.415 14 12 14c-1.414 0-2.121 0-2.56.44M9 22v-5"/>
        <path stroke-width="1.5" d="M14 9.5a2 2 0 1 1-4 0 2 2 0 0 1 4 0Z"/>
    </symbol>

	<symbol data-name="Layer 2" viewBox="0 0 48 48" id="github">
	<path d="M24 2.5a21.5 21.5 0 0 0-6.8 41.9c1.08.2 1.47-.46 1.47-1v-3.65c-6 1.3-7.24-2.88-7.24-2.88A5.7 5.7 0 0 0 9 33.68c-1.95-1.33.15-1.31.15-1.31a4.52 4.52 0 0 1 3.29 2.22c1.92 3.29 5 2.34 6.26 1.79a4.61 4.61 0 0 1 1.37-2.88c-4.78-.54-9.8-2.38-9.8-10.62a8.29 8.29 0 0 1 2.22-5.77 7.68 7.68 0 0 1 .21-5.69s1.8-.58 5.91 2.2a20.46 20.46 0 0 1 10.76 0c4.11-2.78 5.91-2.2 5.91-2.2a7.74 7.74 0 0 1 .21 5.69 8.28 8.28 0 0 1 2.21 5.77c0 8.26-5 10.07-9.81 10.61a5.12 5.12 0 0 1 1.46 4v5.9c0 .71.39 1.24 1.48 1A21.5 21.5 0 0 0 24 2.5" style="stroke-linecap:round;stroke-linejoin:round;fill-rule:evenodd"/>
	</symbol>

	<symbol viewBox="0 0 24 24" id="instagram">
	<path fill-rule="evenodd" d="M2 6a4 4 0 0 1 4-4h12a4 4 0 0 1 4 4v12a4 4 0 0 1-4 4H6a4 4 0 0 1-4-4V6Zm4-2a2 2 0 0 0-2 2v12a2 2 0 0 0 2 2h12a2 2 0 0 0 2-2V6a2 2 0 0 0-2-2H6Zm6 5a3 3 0 1 0 0 6 3 3 0 0 0 0-6Zm-5 3a5 5 0 1 1 10 0 5 5 0 0 1-10 0Zm10.5-4a1.5 1.5 0 1 0 0-3 1.5 1.5 0 0 0 0 3Z" clip-rule="evenodd"/>
	</symbol>

	<symbol viewBox="0 0 24 24" id="gallery">
    <circle cx="16" cy="8" r="2" stroke-width="1.5"/>
    <path stroke-linecap="round" stroke-width="1.5" d="m2 12.5 1.752-1.533a2.3 2.3 0 0 1 3.14.105l4.29 4.29a2 2 0 0 0 2.564.222l.299-.21a3 3 0 0 1 3.731.225L21 18.5"/>
    <path stroke-linecap="round" stroke-width="1.5" d="M22 12c0 4.714 0 7.071-1.465 8.535C19.072 22 16.714 22 12 22s-7.071 0-8.536-1.465C2 19.072 2 16.714 2 12s0-7.071 1.464-8.536C4.93 2 7.286 2 12 2c4.714 0 7.071 0 8.535 1.464.974.974 1.3 2.343 1.41 4.536"/>
</symbol>
</svg>